<svg width="24" height="24" viewBox="0 0 24 24" fill="none" xmlns="http://www.w3.org/2000/svg">
<path d="M7.13162 10.2249C7.13162 10.1147 7.13013 10.0045 7.13162 9.89092C7.13312 9.72893 7.19292 9.55524 7.29011 9.41329C7.27067 9.28637 7.24974 9.20621 7.27964 9.08263C7.21086 8.82544 6.95519 8.77701 6.67261 8.74862C6.54104 8.73526 6.38256 8.65677 6.29734 8.54822C5.33597 7.33077 5.34643 5.46536 6.33322 4.16274C7.3514 2.8167 8.72095 2.52278 10.1892 2.7165C11.8712 2.93861 12.6621 3.57322 13.8687 4.34644C14.9586 5.04618 15.0872 5.00443 15.1007 5.00944C15.0364 4.90423 14.0631 3.49807 12.5754 2.50608C12.6352 2.53781 12.6965 2.56954 12.7563 2.60294C13.2931 2.89519 13.8164 3.0171 14.3621 2.66306C14.4204 2.62465 14.4712 2.57288 14.5579 2.4994C14.2813 2.50441 14.0511 2.50942 13.8208 2.51443C13.8164 2.49105 13.8119 2.46767 13.8074 2.44429C14.3068 2.40254 14.8002 2.34742 15.1425 1.7863C15.0528 1.81135 15.008 1.8197 14.9661 1.8364C14.3337 2.08523 13.6878 2.03847 13.0419 1.94662C12.1986 1.82638 11.3599 1.64935 10.5136 1.57754C10.4418 1.57086 10.3731 1.5742 10.3028 1.5742C9.02894 1.35877 7.78499 1.60593 6.6457 2.40086C5.39876 3.27095 4.67811 4.53014 4.52112 6.17011C4.40001 7.43097 4.8037 8.46806 5.63051 9.32144C5.71124 9.40494 5.79796 9.57361 5.77703 9.67381C5.68882 10.078 5.7561 10.6324 6.16277 10.5522C6.27042 10.3702 6.33322 10.3235 6.58889 10.3235C6.66065 10.3235 6.72494 10.3368 6.78475 10.3552C6.87147 10.2784 6.98958 10.2316 7.13162 10.2249Z" fill="url(#paint0_linear_2175_56772)"/>
<path d="M17.3769 7.66703C17.3485 7.58353 17.2304 7.25955 17.1302 7.11426C17.5533 9.24354 17.6266 11.8037 16.6353 13.7326C15.8668 15.2256 14.596 16.3144 13.213 17.0275C12.8078 17.2363 12.4026 17.42 12.0124 17.5836C10.3453 18.2834 8.51377 18.5606 6.78092 17.9894C6.47292 20.4444 9.45571 21.1708 11.0391 21.0372C11.347 21.0105 11.6506 20.9571 11.9526 20.8903C12.1006 20.8585 13.6197 20.4594 13.7168 20.4878C13.1442 21.6702 12.2681 22.1879 11.9885 22.5002C13.9531 21.8672 15.7338 20.4277 16.8506 18.5088C17.8075 16.8672 18.5132 14.93 18.4998 12.9443C18.4878 11.144 17.954 9.33038 17.3769 7.66703Z" fill="url(#paint1_linear_2175_56772)"/>
<path d="M9.42844 7.30797C9.36863 7.18606 9.11148 7.12093 8.9515 7.1393C8.6166 7.17771 8.39084 7.44324 8.38635 7.9526C8.40728 7.98266 8.44616 8.28326 8.50895 8.28493C8.84535 8.29495 9.19371 8.2365 9.39106 7.90083C9.47927 7.75053 9.5017 7.4566 9.42844 7.30797Z" fill="url(#paint2_linear_2175_56772)"/>
<path d="M7.46565 9.89442C7.27278 9.63891 7.42379 9.27651 7.33707 9.07444C7.28923 8.96422 7.24288 8.91245 7.14719 8.85233C7.1158 8.83229 6.32489 9.90444 6.21724 10.0397C6.1081 10.175 5.99746 10.3103 5.88383 10.4405C5.86888 10.4739 6.443 11.1603 7.20849 10.9866C7.59273 10.8998 7.96203 10.7595 8.35972 10.2535C8.25955 10.3169 7.67496 10.175 7.46565 9.89442Z" fill="url(#paint3_linear_2175_56772)"/>
<defs>
<linearGradient id="paint0_linear_2175_56772" x1="2486.45" y1="888.052" x2="2513.02" y2="896.033" gradientUnits="userSpaceOnUse">
<stop offset="0.2055" stop-color="#276D21"/>
<stop offset="0.4272" stop-color="#1E4C31"/>
<stop offset="0.6888" stop-color="#348456"/>
<stop offset="0.8881" stop-color="#27EE7A"/>
<stop offset="1" stop-color="#26F37B"/>
</linearGradient>
<linearGradient id="paint1_linear_2175_56772" x1="2744.91" y1="1512.67" x2="2775.7" y2="1518.68" gradientUnits="userSpaceOnUse">
<stop offset="0.2055" stop-color="#276D21"/>
<stop offset="0.4272" stop-color="#1E4C31"/>
<stop offset="0.6888" stop-color="#348456"/>
<stop offset="0.8881" stop-color="#27EE7A"/>
<stop offset="1" stop-color="#26F37B"/>
</linearGradient>
<linearGradient id="paint2_linear_2175_56772" x1="261.653" y1="119.641" x2="264.446" y2="120.315" gradientUnits="userSpaceOnUse">
<stop offset="0.2055" stop-color="#276D21"/>
<stop offset="0.4272" stop-color="#1E4C31"/>
<stop offset="0.6888" stop-color="#348456"/>
<stop offset="0.8881" stop-color="#27EE7A"/>
<stop offset="1" stop-color="#26F37B"/>
</linearGradient>
<linearGradient id="paint3_linear_2175_56772" x1="583.353" y1="220.477" x2="589.561" y2="222.294" gradientUnits="userSpaceOnUse">
<stop offset="0.2055" stop-color="#276D21"/>
<stop offset="0.4272" stop-color="#1E4C31"/>
<stop offset="0.6888" stop-color="#348456"/>
<stop offset="0.8881" stop-color="#27EE7A"/>
<stop offset="1" stop-color="#26F37B"/>
</linearGradient>
</defs>
</svg>
