<svg width="1440" height="1024" viewBox="0 0 1440 1024" fill="none" xmlns="http://www.w3.org/2000/svg">
<path d="M1460.73 537.951C1104.39 346.65 217.422 38.1737 -479.673 334.677C-1351.04 705.307 -2859.04 845.738 -3640.23 430.537" stroke="#EAF5EE"/>
<path d="M1396.45 -124.368C1002.75 -217.009 66.1883 -285.618 -530.517 181.072C-1276.4 764.435 -2696.78 1290.07 -3558.77 1091.01" stroke="#EAF5EE"/>
<path d="M1397.15 -117.259C1003.71 -210.987 67.337 -282.185 -530.656 182.854C-1278.15 764.153 -2699.98 1285.86 -3561.42 1084.42" stroke="#EAF5EE"/>
<path d="M1397.87 -109.858C1004.71 -204.718 68.542 -278.61 -530.787 184.706C-1279.95 763.851 -2703.27 1281.46 -3564.13 1077.54" stroke="#EAF5EE"/>
<path d="M1398.63 -102.165C1005.75 -198.202 69.8082 -274.895 -530.904 186.625C-1281.8 763.526 -2706.66 1276.87 -3566.91 1070.38" stroke="#EAF5EE"/>
<path d="M1399.41 -94.1831C1006.83 -191.44 71.1333 -271.041 -531.01 188.611C-1283.69 763.176 -2710.15 1272.09 -3569.74 1062.93" stroke="#EAF5EE"/>
<path d="M1400.22 -85.9111C1007.95 -184.432 72.5192 -267.046 -531.102 190.664C-1285.63 762.801 -2713.72 1267.12 -3572.63 1055.19" stroke="#EAF5EE"/>
<path d="M1401.06 -77.3479C1009.12 -177.177 73.9691 -262.91 -531.175 192.784C-1287.61 762.402 -2717.37 1261.96 -3575.57 1047.16" stroke="#EAF5EE"/>
<path d="M1401.92 -68.4946C1010.33 -169.675 75.4823 -258.634 -531.23 194.97C-1289.62 761.975 -2721.1 1256.59 -3578.56 1038.84" stroke="#EAF5EE"/>
<path d="M1402.81 -59.3499C1011.59 -161.925 77.0621 -254.215 -531.263 197.224C-1291.67 761.522 -2724.9 1251.04 -3581.58 1030.23" stroke="#EAF5EE"/>
<path d="M1403.74 -49.9207C1012.89 -153.934 78.7085 -249.661 -531.273 199.537C-1293.75 761.035 -2728.77 1245.27 -3584.63 1021.32" stroke="#EAF5EE"/>
<path d="M1404.68 -40.2008C1014.24 -145.696 80.4252 -244.965 -531.256 201.917C-1295.86 760.519 -2732.7 1239.31 -3587.71 1012.11" stroke="#EAF5EE"/>
<path d="M1405.66 -30.1905C1015.63 -137.21 82.2118 -240.126 -531.21 204.362C-1297.99 759.973 -2736.7 1233.15 -3590.81 1002.61" stroke="#EAF5EE"/>
<path d="M1406.67 -19.8961C1017.07 -128.483 84.0707 -235.152 -531.134 206.867C-1300.14 759.39 -2740.74 1226.78 -3593.92 992.803" stroke="#EAF5EE"/>
<path d="M1407.7 -9.31119C1018.55 -119.508 86.0037 -230.034 -531.023 209.436C-1302.31 758.774 -2744.83 1220.2 -3597.03 982.7" stroke="#EAF5EE"/>
<path d="M1408.75 1.55504C1020.08 -110.295 88.0113 -224.783 -530.878 212.062C-1304.49 758.117 -2748.96 1213.41 -3600.14 972.29" stroke="#EAF5EE"/>
<path d="M1409.84 12.7167C1021.66 -100.828 90.0987 -219.383 -530.691 214.757C-1306.68 757.432 -2753.12 1206.42 -3603.24 961.584" stroke="#EAF5EE"/>
<path d="M1410.96 24.1627C1023.29 -91.1192 92.2644 -213.844 -530.463 217.511C-1308.87 756.705 -2757.31 1199.21 -3606.33 950.571" stroke="#EAF5EE"/>
<path d="M1412.1 35.8886C1024.96 -81.1725 94.5115 -208.172 -530.19 220.319C-1311.07 755.933 -2761.52 1191.78 -3609.39 939.246" stroke="#EAF5EE"/>
<path d="M1413.26 47.9056C1026.68 -70.9763 96.8432 -202.354 -529.868 223.192C-1313.26 755.125 -2765.75 1184.14 -3612.42 927.618" stroke="#EAF5EE"/>
<path d="M1414.46 60.2015C1028.45 -60.5428 99.259 -196.401 -529.497 226.118C-1315.44 754.268 -2769.98 1176.27 -3615.41 915.675" stroke="#EAF5EE"/>
<path d="M1415.68 72.7884C1030.28 -49.8593 101.763 -190.302 -529.071 229.109C-1317.61 753.374 -2774.22 1168.2 -3618.35 903.428" stroke="#EAF5EE"/>
<path d="M1416.93 85.6503C1032.15 -38.942 104.357 -184.072 -528.586 232.149C-1319.77 752.425 -2778.45 1159.89 -3621.23 890.86" stroke="#EAF5EE"/>
<path d="M1418.2 98.8051C1034.07 -27.7725 107.042 -177.691 -528.042 235.256C-1321.9 751.439 -2782.66 1151.36 -3624.04 877.988" stroke="#EAF5EE"/>
<path d="M1419.5 112.234C1036.05 -16.3696 109.821 -171.179 -527.433 238.41C-1324 750.396 -2786.86 1142.61 -3626.78 864.792" stroke="#EAF5EE"/>
<path d="M1420.83 125.949C1038.08 -4.71993 112.699 -164.522 -526.755 241.625C-1326.07 749.308 -2791.02 1133.62 -3629.44 851.285" stroke="#EAF5EE"/>
<path d="M1422.19 139.943C1040.16 7.16841 115.673 -157.727 -526.008 244.893C-1328.11 748.167 -2795.15 1124.41 -3632 837.458" stroke="#EAF5EE"/>
<path d="M1423.57 154.22C1042.29 19.3 118.748 -150.789 -525.185 248.217C-1330.1 746.975 -2799.24 1114.97 -3634.46 823.315" stroke="#EAF5EE"/>
<path d="M1424.98 168.779C1044.48 31.6746 121.928 -143.708 -524.284 251.598C-1332.05 745.731 -2803.27 1105.29 -3636.81 808.854" stroke="#EAF5EE"/>
<path d="M1426.41 183.61C1046.72 44.2821 125.213 -136.494 -523.3 255.025C-1333.94 744.425 -2807.24 1095.37 -3639.03 794.065" stroke="#EAF5EE"/>
<path d="M1427.88 198.726C1049.02 57.136 128.608 -129.133 -522.228 258.512C-1335.77 743.069 -2811.14 1085.22 -3641.12 778.961" stroke="#EAF5EE"/>
<path d="M1429.37 214.118C1051.38 70.228 132.114 -121.632 -521.067 262.051C-1337.54 741.653 -2814.96 1074.83 -3643.06 763.533" stroke="#EAF5EE"/>
<path d="M1430.88 229.79C1053.79 83.562 135.732 -113.986 -519.812 265.644C-1339.24 740.181 -2818.7 1064.21 -3644.85 747.784" stroke="#EAF5EE"/>
<path d="M1432.41 245.673C1056.25 97.0702 139.451 -106.264 -518.474 269.224C-1340.88 738.584 -2822.35 1053.27 -3646.49 731.646" stroke="#EAF5EE"/>
<path d="M1433.99 261.959C1058.79 110.943 143.322 -98.2735 -517.001 272.982C-1342.4 737.052 -2825.86 1042.22 -3647.92 715.31" stroke="#EAF5EE"/>
<path d="M1435.59 278.457C1061.38 124.993 147.299 -90.2017 -515.436 276.731C-1343.85 735.397 -2829.27 1030.87 -3649.18 698.588" stroke="#EAF5EE"/>
<path d="M1437.21 295.233C1064.04 139.284 151.401 -81.9847 -513.759 280.533C-1345.21 733.68 -2832.56 1019.26 -3650.24 681.544" stroke="#EAF5EE"/>
<path d="M1438.84 312.217C1066.73 153.747 155.613 -73.6889 -511.984 284.322C-1346.48 731.835 -2835.73 1007.35 -3651.11 664.109" stroke="#EAF5EE"/>
<path d="M1440.51 329.537C1069.5 168.512 159.971 -65.1858 -510.072 288.225C-1347.63 729.987 -2838.74 995.256 -3651.73 646.411" stroke="#EAF5EE"/>
<path d="M1442.21 347.129C1072.34 183.514 164.464 -56.5378 -508.034 292.179C-1348.66 728.074 -2841.58 982.91 -3652.12 628.39" stroke="#EAF5EE"/>
<path d="M1443.94 364.997C1075.24 198.757 169.093 -47.7399 -505.866 296.189C-1349.56 726.099 -2844.27 970.319 -3652.26 610.047" stroke="#EAF5EE"/>
<path d="M1445.71 383.195C1078.22 214.298 173.878 -38.7363 -503.547 300.31C-1350.33 724.117 -2846.75 957.537 -3652.13 591.44" stroke="#EAF5EE"/>
<path d="M1447.48 401.537C1081.24 229.948 178.773 -29.7121 -501.121 304.356C-1350.99 721.94 -2849.09 944.378 -3651.75 572.383" stroke="#EAF5EE"/>
<path d="M1449.29 420.216C1084.33 245.904 183.83 -20.4724 -498.534 308.521C-1351.49 719.763 -2851.2 931.035 -3651.08 553.071" stroke="#EAF5EE"/>
<path d="M1451.12 439.159C1087.5 262.091 189.035 -11.0886 -495.797 312.734C-1351.84 717.513 -2853.11 917.435 -3650.1 533.433" stroke="#EAF5EE"/>
<path d="M1452.99 458.374C1090.73 278.519 194.393 -1.55089 -492.906 317.005C-1352.03 715.199 -2854.79 903.588 -3648.81 513.478" stroke="#EAF5EE"/>
<path d="M1454.89 477.917C1094.05 295.246 199.921 8.19961 -489.839 321.39C-1352.04 712.877 -2856.22 889.551 -3647.18 493.265" stroke="#EAF5EE"/>
<path d="M1456.8 497.599C1097.41 312.08 205.576 17.9736 -486.639 325.7C-1351.91 710.359 -2857.44 875.134 -3645.24 472.607" stroke="#EAF5EE"/>
<path d="M1458.74 517.61C1100.85 329.215 211.409 27.9644 -483.252 330.129C-1351.58 707.835 -2858.38 860.53 -3642.93 451.697" stroke="#EAF5EE"/>
</svg>
